<?xml version="1.0" encoding="UTF-8" standalone="no"?>
<!-- Created with Inkscape (http://www.inkscape.org/) -->

<svg
   xmlns:dc="http://purl.org/dc/elements/1.1/"
   xmlns:cc="http://creativecommons.org/ns#"
   xmlns:rdf="http://www.w3.org/1999/02/22-rdf-syntax-ns#"
   xmlns:svg="http://www.w3.org/2000/svg"
   xmlns="http://www.w3.org/2000/svg"
   xmlns:sodipodi="http://sodipodi.sourceforge.net/DTD/sodipodi-0.dtd"
   xmlns:inkscape="http://www.inkscape.org/namespaces/inkscape"
   width="210mm"
   height="297mm"
   viewBox="0 0 744.09448819 1052.3622047"
   id="svg2"
   version="1.1"
   inkscape:version="0.91 r13725"
   sodipodi:docname="AppIcon.svg">
  <defs
     id="defs4" />
  <sodipodi:namedview
     id="base"
     pagecolor="#ffffff"
     bordercolor="#666666"
     borderopacity="1.0"
     inkscape:pageopacity="0.0"
     inkscape:pageshadow="2"
     inkscape:zoom="0.35"
     inkscape:cx="-126.42857"
     inkscape:cy="520"
     inkscape:document-units="px"
     inkscape:current-layer="svg2"
     showgrid="false"
     inkscape:window-width="1920"
     inkscape:window-height="1057"
     inkscape:window-x="-8"
     inkscape:window-y="-8"
     inkscape:window-maximized="1" />
  <metadata
     id="metadata7">
    <rdf:RDF>
      <cc:Work
         rdf:about="">
        <dc:format>image/svg+xml</dc:format>
        <dc:type
           rdf:resource="http://purl.org/dc/dcmitype/StillImage" />
        <dc:title></dc:title>
      </cc:Work>
    </rdf:RDF>
  </metadata>
  <g
     inkscape:label="Layer 1"
     inkscape:groupmode="layer"
     id="layer1">
    <g
       id="g3387"
       transform="translate(-1790.3576,-220.85258)">
      <g
         id="g3337"
         transform="translate(1905.7143,357.14286)">
        <path
           id="path3339"
           d="M 247.5,383.174 247.5,56.8 C 234.14,42.168 194.073,27.546 158.618,27.546 98.445,27.546 41.504,64.568 0,64.568 l 0,326.374 c 41.504,0 98.445,-37.022 158.618,-37.022 35.455,0 75.522,14.621 88.882,29.254 z"
           style="fill:#d1e7f8"
           inkscape:connector-curvature="0" />
        <path
           id="path3341"
           d="m 414.766,43.364 0,155.115 -43.516,-23.347 -43.516,23.347 0,-170.65 C 294.639,29.907 259.782,43.342 247.5,56.8 l 0,326.374 c 13.36,-14.632 53.427,-29.254 88.882,-29.254 60.172,0 117.114,37.022 158.618,37.022 l 0,-326.374 c -22.77,0 -50.185,-11.141 -80.234,-21.204 z"
           style="fill:#b3d8f4"
           inkscape:connector-curvature="0" />
        <path
           id="path3343"
           d="M 158.618,353.92 C 98.445,353.92 41.504,390.941 0,390.941 l 0,76.513 c 41.504,0 98.445,-37.022 158.618,-37.022 35.455,0 57.67,14.632 71.03,29.254 l 17.852,0 0,-76.513 C 234.14,368.541 194.073,353.92 158.618,353.92 Z"
           style="fill:#b3d8f4"
           inkscape:connector-curvature="0" />
        <path
           id="path3345"
           d="m 247.5,383.174 0,76.513 17.853,0 c 13.349,-14.622 35.575,-29.254 71.03,-29.254 60.172,0 117.114,37.022 158.618,37.022 l 0,-76.513 c -41.504,0 -98.445,-37.022 -158.618,-37.022 -35.456,0 -75.523,14.621 -88.883,29.254 z"
           style="fill:#96c8ef"
           inkscape:connector-curvature="0" />
        <path
           id="path3347"
           d="m 414.766,198.479 0,-155.115 C 400.765,38.675 386.187,34.226 371.25,31.245 l 0,143.887 43.516,23.347 z"
           style="fill:#165c92"
           inkscape:connector-curvature="0" />
        <path
           id="path3349"
           d="m 371.25,175.132 0,-143.887 c -11.434,-2.285 -23.096,-3.699 -34.868,-3.699 -2.861,0 -5.744,0.098 -8.649,0.283 l 0,170.65 43.517,-23.347 z"
           style="fill:#1e81ce"
           inkscape:connector-curvature="0" />
      </g>
      <g
         id="g3351" />
      <g
         id="g3353" />
      <g
         id="g3355" />
      <g
         id="g3357" />
      <g
         id="g3359" />
      <g
         id="g3361" />
      <g
         id="g3363" />
      <g
         id="g3365" />
      <g
         id="g3367" />
      <g
         id="g3369" />
      <g
         id="g3371" />
      <g
         id="g3373" />
      <g
         id="g3375" />
      <g
         id="g3377" />
      <g
         id="g3379" />
    </g>
  </g>
  <g
     inkscape:groupmode="layer"
     id="layer2"
     inkscape:label="Layer 2" />
  <g
     id="g3459"
     transform="matrix(4.3004926,0,0,4.3004926,45.285714,374.79078)">
    <circle
       id="circle3413"
       r="29"
       cy="29"
       cx="29"
       style="fill:#38454f" />
    <path
       id="path3415"
       d="M 16.427,20 8.104,20 C 6.942,20 6,20.942 6,22.104 L 6,34.897 C 6,36.058 6.942,37 8.104,37 l 8.323,0 c 0.375,0 0.743,0.1 1.067,0.29 L 30.83,49.706 C 32.232,50.531 34,49.52 34,47.893 L 34,9.107 C 34,7.48 32.232,6.469 30.83,7.294 L 17.494,19.71 C 17.17,19.9 16.802,20 16.427,20 Z"
       style="fill:#7383bf"
       inkscape:connector-curvature="0" />
    <path
       id="path3417"
       d="m 41.541,42.042 c -0.256,0 -0.512,-0.098 -0.707,-0.293 -0.391,-0.391 -0.391,-1.023 0,-1.414 6.238,-6.238 6.238,-16.39 0,-22.628 -0.391,-0.391 -0.391,-1.023 0,-1.414 0.391,-0.391 1.023,-0.391 1.414,0 7.018,7.019 7.018,18.438 0,25.456 -0.196,0.195 -0.452,0.293 -0.707,0.293 z"
       style="fill:#efce4a"
       inkscape:connector-curvature="0" />
    <path
       id="path3419"
       d="m 38,38 c -0.256,0 -0.512,-0.098 -0.707,-0.293 -0.391,-0.391 -0.391,-1.023 0,-1.414 4.297,-4.297 4.297,-11.289 0,-15.586 -0.391,-0.391 -0.391,-1.023 0,-1.414 0.391,-0.391 1.023,-0.391 1.414,0 5.077,5.077 5.077,13.337 0,18.414 C 38.512,37.902 38.256,38 38,38 Z"
       style="fill:#efce4a"
       inkscape:connector-curvature="0" />
    <path
       id="path3421"
       d="m 44.476,47 c -0.256,0 -0.512,-0.098 -0.707,-0.293 -0.391,-0.391 -0.391,-1.023 0,-1.414 4.356,-4.355 6.755,-10.142 6.755,-16.293 0,-6.151 -2.399,-11.938 -6.755,-16.293 -0.391,-0.391 -0.391,-1.023 0,-1.414 0.391,-0.391 1.023,-0.391 1.414,0 4.734,4.733 7.341,11.021 7.341,17.707 0,6.686 -2.607,12.974 -7.341,17.707 C 44.988,46.902 44.732,47 44.476,47 Z"
       style="fill:#efce4a"
       inkscape:connector-curvature="0" />
    <g
       id="g3423" />
    <g
       id="g3425" />
    <g
       id="g3427" />
    <g
       id="g3429" />
    <g
       id="g3431" />
    <g
       id="g3433" />
    <g
       id="g3435" />
    <g
       id="g3437" />
    <g
       id="g3439" />
    <g
       id="g3441" />
    <g
       id="g3443" />
    <g
       id="g3445" />
    <g
       id="g3447" />
    <g
       id="g3449" />
    <g
       id="g3451" />
  </g>
</svg>
